# xmcd CD database file
#
# Track frame offsets:
#	150
#	13015
#	25750
#	37419
#	50697
#	64657
#	81200
#	91092
#	104899
#	118132
#	131561
#	144450
#	158408
#	172217
#	184651
#	197012
#	207886
#	218947
#	233095
#	244954
#
# Disc length: 3441 seconds
#
# Revision: 0
# Processed by: cddbd v1.5.2PL0 Copyright (c) Steve Scherf et al.
# Submitted via: CDex 1.70beta2
#
DISCID=250d6f14
DTITLE=Various Artist - Classic Blues [CD3]
DYEAR=2019
DGENRE=Blues
TTITLE0=I'm Your Hoochie Coochie Man - Muddy Waters
TTITLE1=Every Day (I Have The Blues) - B.B. King
TTITLE2=Don't Start Me Talkin' - Sonny Boy Williamson II
TTITLE3=Mannish Boy - Muddy Waters
TTITLE4=Smokestack Lightnin' - Howlin' Wolf
TTITLE5=I Can't Quit You Baby - Otis Rush
TTITLE6=Dimples - John Lee Hooker
TTITLE7=I'm A King Bee - Slim Harpo
TTITLE8=All Your Love - Magic Sam
TTITLE9=Further Up The Road - Bobby 'Blue' Bland
TTITLE10=Got My Mojo Working - Muddy Waters
TTITLE11=It Hurts Me Too - Elmore James
TTITLE12=Sit And Cry (The Blues) - Buddy Guy
TTITLE13=Crawlin' King Snake - John Lee Hooker
TTITLE14=Spoonful - Howlin' Wolf
TTITLE15=Baby What You Want Me To Do - Jimmy Reed
TTITLE16=The Red Rooster - Howlin' Wolf
TTITLE17=I Just Want To Make Love To You - Etta James
TTITLE18=I'm Tore Down - Freddie King
TTITLE19=Don't Throw Your Love On Me So Strong - Albert King
EXTD=YEAR: 2019
EXTT0=
EXTT1=
EXTT2=
EXTT3=
EXTT4=
EXTT5=
EXTT6=
EXTT7=
EXTT8=
EXTT9=
EXTT10=
EXTT11=
EXTT12=
EXTT13=
EXTT14=
EXTT15=
EXTT16=
EXTT17=
EXTT18=
EXTT19=
PLAYORDER=
